{
.appVersion = "939";
copyright = "Copyright 2016 Google Inc. All Rights Reserved.";
customParameters = (
{
name = description;
value = "Designed by Monotype design team.";
},
{
name = license;
value = "This Font Software is licensed under the SIL Open Font License, Version 1.1. This Font Software is distributed on an \"AS IS\" BASIS, WITHOUT WARRANTIES OR CONDITIONS OF ANY KIND, either express or implied. See the SIL Open Font License for the specific language, permissions and limitations governing your use of this Font Software.";
},
{
name = licenseURL;
value = "http://scripts.sil.org/OFL";
},
{
name = vendorID;
value = GOOG;
},
{
name = trademark;
value = "Noto is a trademark of Google Inc.";
},
{
name = fsType;
value = ();
},
{
name = panose;
value = (
2,
11,
5,
2,
4,
5,
4,
2,
2,
4
);
},
{
name = unicodeRanges;
value = (
57,
106
);
},
{
name = codePageRanges;
value = (
1252
);
}
);
date = "2016-12-02 00:55:55 +0000";
designer = "Monotype Design Team";
designerURL = "http://www.monotype.com/studio";
disablesNiceNames = 1;
familyName = "Noto Sans Osmanya";
fontMaster = (
{
ascender = 2189;
capHeight = 1434;
customParameters = (
{
name = typoAscender;
value = 2189;
},
{
name = typoDescender;
value = -600;
},
{
name = typoLineGap;
value = 0;
},
{
name = winAscent;
value = 2189;
},
{
name = winDescent;
value = 600;
},
{
name = hheaAscender;
value = 2189;
},
{
name = hheaDescender;
value = -600;
},
{
name = underlinePosition;
value = -205;
},
{
name = underlineThickness;
value = 102;
}
);
descender = -600;
id = "A575C30B-1DE4-4C59-99F4-F4D055544CA7";
weightValue = 400;
widthValue = 5;
xHeight = 1024;
}
);
glyphs = (
{
glyphname = .notdef;
lastChange = "2016-11-10 14:51:27 +0000";
layers = (
{
layerId = "A575C30B-1DE4-4C59-99F4-F4D055544CA7";
paths = (
{
closed = 1;
nodes = (
"922 0 LINE",
"922 1462 LINE",
"102 1462 LINE",
"102 0 LINE"
);
},
{
closed = 1;
nodes = (
"201 1364 LINE",
"823 1364 LINE",
"823 98 LINE",
"201 98 LINE"
);
}
);
width = 1024;
}
);
note = .notdef;
},
{
glyphname = g4;
lastChange = "2016-11-10 14:51:27 +0000";
layers = (
{
layerId = "A575C30B-1DE4-4C59-99F4-F4D055544CA7";
paths = (
{
closed = 1;
nodes = (
"684 -20 OFFCURVE",
"788 4 OFFCURVE",
"878 53 CURVE SMOOTH",
"1057 149 OFFCURVE",
"1157 335 OFFCURVE",
"1157 567 CURVE SMOOTH",
"1157 806 OFFCURVE",
"1052 1005 OFFCURVE",
"837 1198 CURVE",
"910 1245 OFFCURVE",
"991 1294 OFFCURVE",
"1081 1343 CURVE",
"1014 1490 LINE",
"891 1423 OFFCURVE",
"788 1362 OFFCURVE",
"705 1308 CURVE",
"626 1368 OFFCURVE",
"536 1429 OFFCURVE",
"435 1490 CURVE",
"338 1343 LINE",
"418 1292 OFFCURVE",
"488 1243 OFFCURVE",
"549 1198 CURVE",
"222 937 OFFCURVE",
"80 685 OFFCURVE",
"80 408 CURVE SMOOTH",
"80 141 OFFCURVE",
"262 -20 OFFCURVE",
"566 -20 CURVE SMOOTH"
);
},
{
closed = 1;
nodes = (
"383 140 OFFCURVE",
"274 241 OFFCURVE",
"274 422 CURVE SMOOTH",
"274 661 OFFCURVE",
"395 877 OFFCURVE",
"682 1092 CURVE",
"875 925 OFFCURVE",
"963 770 OFFCURVE",
"963 567 CURVE SMOOTH",
"963 294 OFFCURVE",
"827 140 OFFCURVE",
"582 140 CURVE SMOOTH"
);
}
);
width = 1297;
}
);
note = g4;
},
{
glyphname = g5;
lastChange = "2016-11-10 14:51:27 +0000";
layers = (
{
layerId = "A575C30B-1DE4-4C59-99F4-F4D055544CA7";
paths = (
{
closed = 1;
nodes = (
"622 -23 OFFCURVE",
"734 0 OFFCURVE",
"834 47 CURVE SMOOTH",
"1033 140 OFFCURVE",
"1156 319 OFFCURVE",
"1193 555 CURVE",
"1374 565 LINE",
"1398 720 LINE",
"1326 718 OFFCURVE",
"1264 715 OFFCURVE",
"1211 710 CURVE",
"1288 1462 LINE",
"1104 1462 LINE",
"1065 1105 LINE SMOOTH",
"1053 997 OFFCURVE",
"1008 937 OFFCURVE",
"901 937 CURVE SMOOTH",
"812 937 OFFCURVE",
"769 984 OFFCURVE",
"769 1085 CURVE",
"773 1152 LINE",
"804 1462 LINE",
"620 1462 LINE",
"583 1105 LINE SMOOTH",
"572 993 OFFCURVE",
"514 937 OFFCURVE",
"409 937 CURVE SMOOTH",
"328 937 OFFCURVE",
"282 986 OFFCURVE",
"282 1074 CURVE",
"290 1164 LINE",
"320 1462 LINE",
"136 1462 LINE",
"103 1137 LINE",
"100 1069 LINE",
"100 878 OFFCURVE",
"203 777 OFFCURVE",
"390 777 CURVE SMOOTH",
"489 777 OFFCURVE",
"573 809 OFFCURVE",
"641 873 CURVE",
"695 809 OFFCURVE",
"772 777 OFFCURVE",
"872 777 CURVE SMOOTH",
"931 777 OFFCURVE",
"985 789 OFFCURVE",
"1034 813 CURVE",
"1020 690 LINE",
"731 652 OFFCURVE",
"509 596 OFFCURVE",
"352 521 CURVE SMOOTH",
"195 446 OFFCURVE",
"117 357 OFFCURVE",
"117 254 CURVE SMOOTH",
"117 62 OFFCURVE",
"246 -23 OFFCURVE",
"499 -23 CURVE SMOOTH"
);
},
{
closed = 1;
nodes = (
"365 137 OFFCURVE",
"301 165 OFFCURVE",
"301 252 CURVE SMOOTH",
"301 311 OFFCURVE",
"362 366 OFFCURVE",
"483 415 CURVE SMOOTH",
"604 464 OFFCURVE",
"776 503 OFFCURVE",
"997 534 CURVE",
"940 278 OFFCURVE",
"767 137 OFFCURVE",
"502 137 CURVE SMOOTH"
);
}
);
width = 1428;
}
);
note = g5;
},
{
glyphname = g6;
lastChange = "2016-11-10 14:51:27 +0000";
layers = (
{
layerId = "A575C30B-1DE4-4C59-99F4-F4D055544CA7";
paths = (
{
closed = 1;
nodes = (
"1216 -25 OFFCURVE",
"1351 144 OFFCURVE",
"1351 437 CURVE SMOOTH",
"1351 506 OFFCURVE",
"1344 567 OFFCURVE",
"1331 620 CURVE",
"1156 577 LINE",
"1166 525 OFFCURVE",
"1171 473 OFFCURVE",
"1171 421 CURVE SMOOTH",
"1171 233 OFFCURVE",
"1102 135 OFFCURVE",
"982 135 CURVE SMOOTH",
"903 135 OFFCURVE",
"863 187 OFFCURVE",
"863 322 CURVE SMOOTH",
"863 354 OFFCURVE",
"868 420 OFFCURVE",
"879 521 CURVE SMOOTH",
"977 1462 LINE",
"793 1462 LINE",
"761 1160 LINE",
"357 1160 LINE SMOOTH",
"302 1160 OFFCURVE",
"251 1145 OFFCURVE",
"202 1116 CURVE SMOOTH",
"104 1057 OFFCURVE",
"40 949 OFFCURVE",
"40 844 CURVE SMOOTH",
"40 701 OFFCURVE",
"148 589 OFFCURVE",
"297 589 CURVE SMOOTH",
"474 589 OFFCURVE",
"615 725 OFFCURVE",
"615 905 CURVE SMOOTH",
"615 940 OFFCURVE",
"608 974 OFFCURVE",
"595 1006 CURVE",
"745 1006 LINE",
"698 558 OFFCURVE",
"674 330 OFFCURVE",
"674 322 CURVE",
"673 314 OFFCURVE",
"673 305 OFFCURVE",
"673 296 CURVE SMOOTH",
"673 82 OFFCURVE",
"774 -25 OFFCURVE",
"976 -25 CURVE SMOOTH"
);
},
{
closed = 1;
nodes = (
"250 745 OFFCURVE",
"197 792 OFFCURVE",
"197 861 CURVE SMOOTH",
"197 937 OFFCURVE",
"265 1004 OFFCURVE",
"341 1004 CURVE SMOOTH",
"408 1004 OFFCURVE",
"458 953 OFFCURVE",
"458 889 CURVE SMOOTH",
"458 809 OFFCURVE",
"389 745 OFFCURVE",
"314 745 CURVE SMOOTH"
);
}
);
width = 1431;
}
);
note = g6;
},
{
glyphname = g7;
lastChange = "2016-11-10 14:51:27 +0000";
layers = (
{
layerId = "A575C30B-1DE4-4C59-99F4-F4D055544CA7";
paths = (
{
closed = 1;
nodes = (
"324 0 LINE",
"477 1462 LINE",
"293 1462 LINE",
"140 0 LINE"
);
}
);
width = 617;
}
);
note = g7;
},
{
glyphname = g8;
lastChange = "2016-11-10 14:51:27 +0000";
layers = (
{
layerId = "A575C30B-1DE4-4C59-99F4-F4D055544CA7";
paths = (
{
closed = 1;
nodes = (
"1379 -25 OFFCURVE",
"1514 144 OFFCURVE",
"1514 437 CURVE SMOOTH",
"1514 497 OFFCURVE",
"1507 558 OFFCURVE",
"1494 620 CURVE",
"1319 577 LINE",
"1329 514 OFFCURVE",
"1334 462 OFFCURVE",
"1334 421 CURVE SMOOTH",
"1334 233 OFFCURVE",
"1265 135 OFFCURVE",
"1145 135 CURVE SMOOTH",
"1066 135 OFFCURVE",
"1026 187 OFFCURVE",
"1026 322 CURVE SMOOTH",
"1026 354 OFFCURVE",
"1031 420 OFFCURVE",
"1042 521 CURVE SMOOTH",
"1141 1462 LINE",
"911 1462 LINE",
"657 1084 LINE",
"478 1462 LINE",
"253 1462 LINE",
"100 0 LINE",
"284 0 LINE",
"377 887 LINE SMOOTH",
"390 1014 OFFCURVE",
"397 1132 OFFCURVE",
"399 1242 CURVE",
"407 1242 LINE",
"584 860 LINE",
"684 860 LINE",
"940 1240 LINE",
"948 1240 LINE",
"879 695 OFFCURVE",
"844 404 OFFCURVE",
"841 367 CURVE SMOOTH",
"838 330 OFFCURVE",
"836 307 OFFCURVE",
"836 296 CURVE SMOOTH",
"836 82 OFFCURVE",
"937 -25 OFFCURVE",
"1139 -25 CURVE SMOOTH"
);
}
);
width = 1594;
}
);
note = g8;
},
{
glyphname = g9;
lastChange = "2016-11-10 14:51:27 +0000";
layers = (
{
layerId = "A575C30B-1DE4-4C59-99F4-F4D055544CA7";
paths = (
{
closed = 1;
nodes = (
"1229 -25 OFFCURVE",
"1359 132 OFFCURVE",
"1359 417 CURVE SMOOTH",
"1359 478 OFFCURVE",
"1352 545 OFFCURVE",
"1339 620 CURVE",
"1164 577 LINE",
"1174 525 OFFCURVE",
"1179 462 OFFCURVE",
"1179 389 CURVE SMOOTH",
"1179 205 OFFCURVE",
"1117 135 OFFCURVE",
"990 135 CURVE SMOOTH",
"914 135 OFFCURVE",
"869 174 OFFCURVE",
"869 246 CURVE SMOOTH",
"869 291 OFFCURVE",
"873 353 OFFCURVE",
"882 434 CURVE SMOOTH",
"891 514 OFFCURVE",
"895 576 OFFCURVE",
"895 619 CURVE SMOOTH",
"895 854 OFFCURVE",
"801 950 OFFCURVE",
"594 950 CURVE SMOOTH",
"514 950 OFFCURVE",
"442 933 OFFCURVE",
"378 898 CURVE",
"389 997 LINE SMOOTH",
"409 1213 OFFCURVE",
"502 1324 OFFCURVE",
"657 1324 CURVE SMOOTH",
"754 1324 OFFCURVE",
"841 1285 OFFCURVE",
"918 1208 CURVE",
"1046 1327 LINE",
"922 1444 OFFCURVE",
"814 1484 OFFCURVE",
"677 1484 CURVE SMOOTH",
"397 1484 OFFCURVE",
"237 1317 OFFCURVE",
"205 1006 CURVE SMOOTH",
"100 0 LINE",
"285 0 LINE",
"359 710 LINE",
"405 763 OFFCURVE",
"469 790 OFFCURVE",
"552 790 CURVE SMOOTH",
"668 790 OFFCURVE",
"709 740 OFFCURVE",
"709 599 CURVE SMOOTH",
"709 552 OFFCURVE",
"704 492 OFFCURVE",
"694 419 CURVE SMOOTH",
"684 346 OFFCURVE",
"679 288 OFFCURVE",
"679 245 CURVE SMOOTH",
"679 68 OFFCURVE",
"775 -25 OFFCURVE",
"984 -25 CURVE SMOOTH"
);
}
);
width = 1439;
}
);
note = g9;
},
{
glyphname = g10;
lastChange = "2016-11-10 14:51:27 +0000";
layers = (
{
layerId = "A575C30B-1DE4-4C59-99F4-F4D055544CA7";
paths = (
{
closed = 1;
nodes = (
"1126 -22 OFFCURVE",
"1394 298 OFFCURVE",
"1394 838 CURVE SMOOTH",
"1394 1238 OFFCURVE",
"1187 1485 OFFCURVE",
"834 1485 CURVE SMOOTH",
"684 1485 OFFCURVE",
"555 1450 OFFCURVE",
"446 1380 CURVE SMOOTH",
"229 1240 OFFCURVE",
"110 970 OFFCURVE",
"110 622 CURVE SMOOTH",
"110 218 OFFCURVE",
"314 -22 OFFCURVE",
"673 -22 CURVE SMOOTH"
);
},
{
closed = 1;
nodes = (
"443 138 OFFCURVE",
"304 315 OFFCURVE",
"304 631 CURVE SMOOTH",
"304 1072 OFFCURVE",
"497 1325 OFFCURVE",
"817 1325 CURVE SMOOTH",
"1064 1325 OFFCURVE",
"1200 1148 OFFCURVE",
"1200 835 CURVE SMOOTH",
"1200 400 OFFCURVE",
"1013 138 OFFCURVE",
"690 138 CURVE SMOOTH"
);
}
);
width = 1524;
}
);
note = g10;
},
{
glyphname = g11;
lastChange = "2016-11-10 14:51:27 +0000";
layers = (
{
layerId = "A575C30B-1DE4-4C59-99F4-F4D055544CA7";
paths = (
{
closed = 1;
nodes = (
"684 0 LINE",
"837 1462 LINE",
"715 1462 LINE",
"645 1448 OFFCURVE",
"587 1441 OFFCURVE",
"540 1441 CURVE SMOOTH",
"487 1441 OFFCURVE",
"428 1448 OFFCURVE",
"363 1463 CURVE SMOOTH",
"298 1477 OFFCURVE",
"242 1484 OFFCURVE",
"196 1484 CURVE SMOOTH",
"121 1484 OFFCURVE",
"56 1470 OFFCURVE",
"0 1442 CURVE",
"62 1303 LINE",
"99 1317 OFFCURVE",
"144 1324 OFFCURVE",
"196 1324 CURVE SMOOTH",
"226 1324 OFFCURVE",
"274 1317 OFFCURVE",
"340 1303 CURVE SMOOTH",
"406 1288 OFFCURVE",
"466 1281 OFFCURVE",
"520 1281 CURVE SMOOTH",
"549 1281 OFFCURVE",
"588 1286 OFFCURVE",
"637 1295 CURVE",
"500 0 LINE"
);
}
);
width = 937;
}
);
note = g11;
},
{
glyphname = g12;
lastChange = "2016-11-10 14:51:27 +0000";
layers = (
{
layerId = "A575C30B-1DE4-4C59-99F4-F4D055544CA7";
paths = (
{
closed = 1;
nodes = (
"830 -22 OFFCURVE",
"1035 185 OFFCURVE",
"1035 482 CURVE SMOOTH",
"1035 719 OFFCURVE",
"883 882 OFFCURVE",
"598 950 CURVE",
"650 1040 OFFCURVE",
"676 1128 OFFCURVE",
"676 1214 CURVE SMOOTH",
"676 1379 OFFCURVE",
"560 1484 OFFCURVE",
"368 1484 CURVE SMOOTH",
"260 1484 OFFCURVE",
"168 1462 OFFCURVE",
"60 1401 CURVE",
"123 1264 LINE",
"190 1304 OFFCURVE",
"262 1324 OFFCURVE",
"338 1324 CURVE SMOOTH",
"425 1324 OFFCURVE",
"481 1277 OFFCURVE",
"481 1198 CURVE SMOOTH",
"481 1094 OFFCURVE",
"437 1003 OFFCURVE",
"298 808 CURVE SMOOTH",
"173 633 OFFCURVE",
"115 487 OFFCURVE",
"115 335 CURVE SMOOTH",
"115 124 OFFCURVE",
"276 -22 OFFCURVE",
"525 -22 CURVE SMOOTH"
);
},
{
closed = 1;
nodes = (
"407 138 OFFCURVE",
"310 222 OFFCURVE",
"310 353 CURVE SMOOTH",
"310 404 OFFCURVE",
"316 451 OFFCURVE",
"328 495 CURVE SMOOTH",
"352 583 OFFCURVE",
"382 648 OFFCURVE",
"497 805 CURVE",
"725 762 OFFCURVE",
"841 638 OFFCURVE",
"841 470 CURVE SMOOTH",
"841 410 OFFCURVE",
"829 355 OFFCURVE",
"805 304 CURVE SMOOTH",
"757 202 OFFCURVE",
"667 138 OFFCURVE",
"555 138 CURVE SMOOTH"
);
}
);
width = 1155;
}
);
note = g12;
},
{
glyphname = g13;
lastChange = "2016-11-10 14:51:27 +0000";
layers = (
{
layerId = "A575C30B-1DE4-4C59-99F4-F4D055544CA7";
paths = (
{
closed = 1;
nodes = (
"875 -22 OFFCURVE",
"967 0 OFFCURVE",
"1075 61 CURVE",
"1012 198 LINE",
"945 158 OFFCURVE",
"873 138 OFFCURVE",
"797 138 CURVE SMOOTH",
"710 138 OFFCURVE",
"654 185 OFFCURVE",
"654 264 CURVE SMOOTH",
"654 364 OFFCURVE",
"697 457 OFFCURVE",
"837 653 CURVE SMOOTH",
"961 825 OFFCURVE",
"1020 972 OFFCURVE",
"1020 1124 CURVE SMOOTH",
"1020 1194 OFFCURVE",
"1003 1256 OFFCURVE",
"969 1311 CURVE SMOOTH",
"901 1420 OFFCURVE",
"773 1484 OFFCURVE",
"610 1484 CURVE SMOOTH",
"305 1484 OFFCURVE",
"100 1278 OFFCURVE",
"100 977 CURVE SMOOTH",
"100 733 OFFCURVE",
"260 572 OFFCURVE",
"537 508 CURVE",
"485 422 OFFCURVE",
"459 335 OFFCURVE",
"459 248 CURVE SMOOTH",
"459 83 OFFCURVE",
"575 -22 OFFCURVE",
"767 -22 CURVE SMOOTH"
);
},
{
closed = 1;
nodes = (
"413 697 OFFCURVE",
"294 820 OFFCURVE",
"294 989 CURVE SMOOTH",
"294 1048 OFFCURVE",
"306 1104 OFFCURVE",
"330 1156 CURVE SMOOTH",
"377 1259 OFFCURVE",
"468 1324 OFFCURVE",
"580 1324 CURVE SMOOTH",
"728 1324 OFFCURVE",
"825 1238 OFFCURVE",
"825 1106 CURVE SMOOTH",
"825 1055 OFFCURVE",
"819 1007 OFFCURVE",
"806 962 CURVE SMOOTH",
"781 871 OFFCURVE",
"746 799 OFFCURVE",
"637 654 CURVE"
);
}
);
width = 1135;
}
);
note = g13;
},
{
glyphname = g14;
lastChange = "2016-11-10 14:51:27 +0000";
layers = (
{
layerId = "A575C30B-1DE4-4C59-99F4-F4D055544CA7";
paths = (
{
closed = 1;
nodes = (
"740 -22 OFFCURVE",
"804 -2 OFFCURVE",
"859 37 CURVE SMOOTH",
"967 116 OFFCURVE",
"1029 270 OFFCURVE",
"1029 453 CURVE SMOOTH",
"1029 540 OFFCURVE",
"1024 602 OFFCURVE",
"1015 640 CURVE",
"1094 640 OFFCURVE",
"1161 643 OFFCURVE",
"1216 648 CURVE",
"1236 810 LINE",
"1165 803 OFFCURVE",
"1096 800 OFFCURVE",
"1028 800 CURVE SMOOTH",
"961 800 OFFCURVE",
"890 803 OFFCURVE",
"817 810 CURVE",
"806 658 LINE",
"831 617 OFFCURVE",
"844 558 OFFCURVE",
"844 479 CURVE SMOOTH",
"844 255 OFFCURVE",
"789 138 OFFCURVE",
"662 138 CURVE SMOOTH",
"585 138 OFFCURVE",
"546 194 OFFCURVE",
"544 305 CURVE",
"544 340 OFFCURVE",
"546 376 OFFCURVE",
"550 415 CURVE SMOOTH",
"663 1462 LINE",
"532 1462 LINE",
"497 1449 OFFCURVE",
"448 1443 OFFCURVE",
"385 1443 CURVE SMOOTH",
"358 1443 OFFCURVE",
"316 1450 OFFCURVE",
"257 1464 CURVE SMOOTH",
"198 1477 OFFCURVE",
"152 1484 OFFCURVE",
"121 1484 CURVE SMOOTH",
"82 1484 OFFCURVE",
"51 1481 OFFCURVE",
"30 1476 CURVE",
"55 1321 LINE",
"122 1324 LINE",
"138 1324 OFFCURVE",
"178 1317 OFFCURVE",
"242 1302 CURVE SMOOTH",
"306 1287 OFFCURVE",
"354 1280 OFFCURVE",
"386 1280 CURVE SMOOTH",
"413 1280 OFFCURVE",
"438 1283 OFFCURVE",
"462 1290 CURVE",
"365 406 LINE SMOOTH",
"361 368 OFFCURVE",
"359 332 OFFCURVE",
"359 299 CURVE SMOOTH",
"359 85 OFFCURVE",
"462 -22 OFFCURVE",
"667 -22 CURVE SMOOTH"
);
}
);
width = 1276;
}
);
note = g14;
},
{
glyphname = g15;
lastChange = "2016-11-10 14:51:27 +0000";
layers = (
{
layerId = "A575C30B-1DE4-4C59-99F4-F4D055544CA7";
paths = (
{
closed = 1;
nodes = (
"501 -22 OFFCURVE",
"684 149 OFFCURVE",
"775 462 CURVE",
"842 467 OFFCURVE",
"893 469 OFFCURVE",
"928 469 CURVE",
"952 624 LINE",
"899 624 OFFCURVE",
"851 622 OFFCURVE",
"809 619 CURVE",
"822 716 LINE",
"898 1462 LINE",
"714 1462 LINE",
"675 1105 LINE SMOOTH",
"663 997 OFFCURVE",
"618 937 OFFCURVE",
"511 937 CURVE SMOOTH",
"422 937 OFFCURVE",
"379 984 OFFCURVE",
"379 1085 CURVE",
"383 1152 LINE",
"414 1462 LINE",
"230 1462 LINE",
"193 1105 LINE",
"190 1051 LINE",
"190 867 OFFCURVE",
"301 777 OFFCURVE",
"482 777 CURVE SMOOTH",
"541 777 OFFCURVE",
"595 789 OFFCURVE",
"644 813 CURVE",
"633 723 OFFCURVE",
"624 651 OFFCURVE",
"615 598 CURVE",
"489 579 OFFCURVE",
"379 552 OFFCURVE",
"286 516 CURVE SMOOTH",
"98 443 OFFCURVE",
"0 338 OFFCURVE",
"0 211 CURVE SMOOTH",
"0 58 OFFCURVE",
"97 -22 OFFCURVE",
"268 -22 CURVE SMOOTH"
);
},
{
closed = 1;
nodes = (
"218 138 OFFCURVE",
"184 174 OFFCURVE",
"184 214 CURVE SMOOTH",
"184 265 OFFCURVE",
"219 309 OFFCURVE",
"288 348 CURVE SMOOTH",
"357 386 OFFCURVE",
"455 416 OFFCURVE",
"581 437 CURVE",
"524 238 OFFCURVE",
"422 138 OFFCURVE",
"273 138 CURVE SMOOTH"
);
}
);
width = 1032;
}
);
note = g15;
},
{
glyphname = g16;
lastChange = "2016-11-10 14:51:27 +0000";
layers = (
{
layerId = "A575C30B-1DE4-4C59-99F4-F4D055544CA7";
paths = (
{
closed = 1;
nodes = (
"1194 -22 OFFCURVE",
"1334 148 OFFCURVE",
"1334 440 CURVE SMOOTH",
"1334 507 OFFCURVE",
"1327 567 OFFCURVE",
"1314 620 CURVE",
"1139 577 LINE",
"1149 530 OFFCURVE",
"1154 479 OFFCURVE",
"1154 424 CURVE SMOOTH",
"1154 236 OFFCURVE",
"1085 138 OFFCURVE",
"965 138 CURVE SMOOTH",
"886 138 OFFCURVE",
"846 190 OFFCURVE",
"846 325 CURVE SMOOTH",
"846 354 OFFCURVE",
"849 393 OFFCURVE",
"856 443 CURVE SMOOTH",
"862 492 OFFCURVE",
"865 528 OFFCURVE",
"865 550 CURVE SMOOTH",
"865 675 OFFCURVE",
"813 764 OFFCURVE",
"693 857 CURVE SMOOTH",
"641 897 LINE",
"766 1024 OFFCURVE",
"808 1117 OFFCURVE",
"808 1233 CURVE SMOOTH",
"808 1386 OFFCURVE",
"695 1484 OFFCURVE",
"506 1484 CURVE SMOOTH",
"447 1484 OFFCURVE",
"395 1473 OFFCURVE",
"351 1450 CURVE SMOOTH",
"262 1404 OFFCURVE",
"213 1318 OFFCURVE",
"213 1223 CURVE SMOOTH",
"213 1114 OFFCURVE",
"257 1019 OFFCURVE",
"377 896 CURVE",
"298 827 OFFCURVE",
"248 779 OFFCURVE",
"226 750 CURVE SMOOTH",
"181 693 OFFCURVE",
"162 632 OFFCURVE",
"149 492 CURVE SMOOTH",
"100 0 LINE",
"285 0 LINE",
"333 483 LINE SMOOTH",
"345 595 OFFCURVE",
"374 652 OFFCURVE",
"509 776 CURVE",
"585 708 LINE SMOOTH",
"644 656 OFFCURVE",
"673 591 OFFCURVE",
"673 513 CURVE SMOOTH",
"673 475 OFFCURVE",
"670 439 OFFCURVE",
"665 405 CURVE SMOOTH",
"659 370 OFFCURVE",
"656 335 OFFCURVE",
"656 299 CURVE SMOOTH",
"656 84 OFFCURVE",
"770 -22 OFFCURVE",
"954 -22 CURVE SMOOTH"
);
},
{
closed = 1;
nodes = (
"440 1077 OFFCURVE",
"397 1141 OFFCURVE",
"397 1221 CURVE SMOOTH",
"397 1277 OFFCURVE",
"446 1324 OFFCURVE",
"507 1324 CURVE SMOOTH",
"571 1324 OFFCURVE",
"623 1286 OFFCURVE",
"623 1218 CURVE SMOOTH",
"623 1192 OFFCURVE",
"620 1169 OFFCURVE",
"613 1148 CURVE SMOOTH",
"600 1106 OFFCURVE",
"583 1077 OFFCURVE",
"508 1009 CURVE"
);
}
);
width = 1414;
}
);
note = g16;
},
{
glyphname = g17;
lastChange = "2016-11-10 14:51:27 +0000";
layers = (
{
layerId = "A575C30B-1DE4-4C59-99F4-F4D055544CA7";
paths = (
{
closed = 1;
nodes = (
"1006 -22 OFFCURVE",
"1141 142 OFFCURVE",
"1141 437 CURVE SMOOTH",
"1141 497 OFFCURVE",
"1134 558 OFFCURVE",
"1121 620 CURVE",
"946 577 LINE",
"956 527 OFFCURVE",
"961 475 OFFCURVE",
"961 421 CURVE SMOOTH",
"961 234 OFFCURVE",
"892 138 OFFCURVE",
"772 138 CURVE SMOOTH",
"693 138 OFFCURVE",
"653 190 OFFCURVE",
"653 325 CURVE SMOOTH",
"653 355 OFFCURVE",
"658 420 OFFCURVE",
"669 521 CURVE SMOOTH",
"768 1462 LINE",
"584 1462 LINE",
"545 1105 LINE SMOOTH",
"533 997 OFFCURVE",
"488 937 OFFCURVE",
"381 937 CURVE SMOOTH",
"292 937 OFFCURVE",
"249 984 OFFCURVE",
"249 1085 CURVE",
"253 1152 LINE",
"284 1462 LINE",
"100 1462 LINE",
"63 1105 LINE",
"60 1051 LINE",
"60 867 OFFCURVE",
"171 777 OFFCURVE",
"352 777 CURVE SMOOTH",
"413 777 OFFCURVE",
"467 788 OFFCURVE",
"514 809 CURVE",
"474 429 LINE SMOOTH",
"467 366 OFFCURVE",
"463 323 OFFCURVE",
"463 299 CURVE SMOOTH",
"463 95 OFFCURVE",
"575 -22 OFFCURVE",
"766 -22 CURVE SMOOTH"
);
}
);
width = 1221;
}
);
note = g17;
},
{
glyphname = g18;
lastChange = "2016-11-10 14:51:27 +0000";
layers = (
{
layerId = "A575C30B-1DE4-4C59-99F4-F4D055544CA7";
paths = (
{
closed = 1;
nodes = (
"482 -22 OFFCURVE",
"605 108 OFFCURVE",
"630 369 CURVE SMOOTH",
"656 646 LINE",
"781 701 OFFCURVE",
"856 734 OFFCURVE",
"881 747 CURVE",
"856 525 OFFCURVE",
"842 399 OFFCURVE",
"839 370 CURVE SMOOTH",
"836 341 OFFCURVE",
"835 317 OFFCURVE",
"835 299 CURVE SMOOTH",
"835 84 OFFCURVE",
"949 -22 OFFCURVE",
"1138 -22 CURVE SMOOTH",
"1378 -22 OFFCURVE",
"1513 142 OFFCURVE",
"1513 437 CURVE SMOOTH",
"1513 484 OFFCURVE",
"1506 545 OFFCURVE",
"1493 620 CURVE",
"1318 577 LINE",
"1328 490 OFFCURVE",
"1333 438 OFFCURVE",
"1333 421 CURVE SMOOTH",
"1333 234 OFFCURVE",
"1264 138 OFFCURVE",
"1144 138 CURVE SMOOTH",
"1065 138 OFFCURVE",
"1025 190 OFFCURVE",
"1025 325 CURVE SMOOTH",
"1025 358 OFFCURVE",
"1030 415 OFFCURVE",
"1039 495 CURVE SMOOTH",
"1048 574 OFFCURVE",
"1061 692 OFFCURVE",
"1078 847 CURVE",
"1371 996 OFFCURVE",
"1482 1126 OFFCURVE",
"1482 1283 CURVE SMOOTH",
"1482 1400 OFFCURVE",
"1395 1484 OFFCURVE",
"1263 1484 CURVE SMOOTH",
"1052 1484 OFFCURVE",
"948 1364 OFFCURVE",
"920 1095 CURVE SMOOTH",
"903 935 LINE",
"844 901 OFFCURVE",
"768 864 OFFCURVE",
"673 824 CURVE",
"703 1115 LINE",
"705 1153 LINE",
"705 1378 OFFCURVE",
"600 1484 OFFCURVE",
"387 1484 CURVE SMOOTH",
"264 1484 OFFCURVE",
"170 1456 OFFCURVE",
"104 1400 CURVE",
"204 1267 LINE",
"243 1304 OFFCURVE",
"302 1324 OFFCURVE",
"351 1324 CURVE SMOOTH",
"468 1324 OFFCURVE",
"516 1268 OFFCURVE",
"516 1133 CURVE SMOOTH",
"516 1105 LINE",
"482 743 LINE",
"353 684 OFFCURVE",
"257 632 OFFCURVE",
"195 586 CURVE SMOOTH",
"71 494 OFFCURVE",
"0 389 OFFCURVE",
"0 258 CURVE SMOOTH",
"0 91 OFFCURVE",
"106 -22 OFFCURVE",
"263 -22 CURVE SMOOTH"
);
},
{
closed = 1;
nodes = (
"231 138 OFFCURVE",
"185 184 OFFCURVE",
"185 272 CURVE SMOOTH",
"185 372 OFFCURVE",
"256 454 OFFCURVE",
"465 559 CURVE",
"448 374 LINE SMOOTH",
"433 223 OFFCURVE",
"370 138 OFFCURVE",
"291 138 CURVE SMOOTH"
);
},
{
closed = 1;
nodes = (
"1102 1090 LINE SMOOTH",
"1117 1241 OFFCURVE",
"1150 1324 OFFCURVE",
"1229 1324 CURVE SMOOTH",
"1272 1324 OFFCURVE",
"1297 1290 OFFCURVE",
"1297 1253 CURVE SMOOTH",
"1297 1181 OFFCURVE",
"1236 1112 OFFCURVE",
"1096 1032 CURVE"
);
}
);
width = 1593;
}
);
note = g18;
},
{
glyphname = g19;
lastChange = "2016-11-10 14:51:27 +0000";
layers = (
{
layerId = "A575C30B-1DE4-4C59-99F4-F4D055544CA7";
paths = (
{
closed = 1;
nodes = (
"224 0 LINE",
"258 314 LINE SMOOTH",
"270 422 OFFCURVE",
"305 482 OFFCURVE",
"400 482 CURVE SMOOTH",
"509 482 OFFCURVE",
"561 432 OFFCURVE",
"561 353 CURVE",
"525 0 LINE",
"709 0 LINE",
"863 1462 LINE",
"679 1462 LINE",
"640 1105 LINE SMOOTH",
"628 997 OFFCURVE",
"583 937 OFFCURVE",
"476 937 CURVE SMOOTH",
"387 937 OFFCURVE",
"344 984 OFFCURVE",
"344 1085 CURVE",
"348 1152 LINE",
"379 1462 LINE",
"195 1462 LINE",
"158 1105 LINE",
"155 1051 LINE",
"155 867 OFFCURVE",
"266 777 OFFCURVE",
"447 777 CURVE SMOOTH",
"506 777 OFFCURVE",
"560 789 OFFCURVE",
"609 813 CURVE",
"587 600 LINE",
"532 628 OFFCURVE",
"468 642 OFFCURVE",
"393 642 CURVE SMOOTH",
"202 642 OFFCURVE",
"95 540 OFFCURVE",
"74 336 CURVE SMOOTH",
"40 0 LINE"
);
}
);
width = 943;
}
);
note = g19;
},
{
glyphname = g20;
lastChange = "2016-11-10 14:51:27 +0000";
layers = (
{
layerId = "A575C30B-1DE4-4C59-99F4-F4D055544CA7";
paths = (
{
closed = 1;
nodes = (
"1296 -22 OFFCURVE",
"1431 147 OFFCURVE",
"1431 440 CURVE SMOOTH",
"1431 507 OFFCURVE",
"1424 567 OFFCURVE",
"1411 620 CURVE",
"1236 577 LINE",
"1246 530 OFFCURVE",
"1251 479 OFFCURVE",
"1251 424 CURVE SMOOTH",
"1251 236 OFFCURVE",
"1182 138 OFFCURVE",
"1062 138 CURVE SMOOTH",
"983 138 OFFCURVE",
"943 190 OFFCURVE",
"943 325 CURVE SMOOTH",
"943 365 OFFCURVE",
"948 432 OFFCURVE",
"959 526 CURVE SMOOTH",
"970 620 OFFCURVE",
"985 759 OFFCURVE",
"1006 942 CURVE SMOOTH",
"1015 1020 OFFCURVE",
"1019 1085 OFFCURVE",
"1019 1138 CURVE SMOOTH",
"1019 1225 OFFCURVE",
"1007 1292 OFFCURVE",
"983 1341 CURVE SMOOTH",
"935 1437 OFFCURVE",
"835 1484 OFFCURVE",
"666 1484 CURVE SMOOTH",
"513 1484 OFFCURVE",
"404 1446 OFFCURVE",
"333 1370 CURVE SMOOTH",
"261 1294 OFFCURVE",
"224 1186 OFFCURVE",
"199 946 CURVE SMOOTH",
"100 0 LINE",
"283 0 LINE",
"336 513 OFFCURVE",
"369 826 OFFCURVE",
"381 939 CURVE SMOOTH",
"393 1051 OFFCURVE",
"409 1131 OFFCURVE",
"428 1180 CURVE SMOOTH",
"466 1276 OFFCURVE",
"530 1325 OFFCURVE",
"638 1325 CURVE SMOOTH",
"770 1325 OFFCURVE",
"829 1258 OFFCURVE",
"829 1085 CURVE SMOOTH",
"829 1034 OFFCURVE",
"826 989 OFFCURVE",
"821 948 CURVE SMOOTH",
"770 496 LINE SMOOTH",
"759 400 OFFCURVE",
"753 334 OFFCURVE",
"753 299 CURVE SMOOTH",
"753 83 OFFCURVE",
"865 -22 OFFCURVE",
"1056 -22 CURVE SMOOTH"
);
}
);
width = 1511;
}
);
note = g20;
},
{
glyphname = g21;
lastChange = "2016-11-10 14:51:27 +0000";
layers = (
{
layerId = "A575C30B-1DE4-4C59-99F4-F4D055544CA7";
paths = (
{
closed = 1;
nodes = (
"758 -22 OFFCURVE",
"927 183 OFFCURVE",
"927 548 CURVE SMOOTH",
"927 841 OFFCURVE",
"769 1017 OFFCURVE",
"509 1017 CURVE SMOOTH",
"445 1017 OFFCURVE",
"366 999 OFFCURVE",
"325 974 CURVE",
"377 1462 LINE",
"193 1462 LINE",
"104 620 LINE",
"288 620 LINE",
"304 778 LINE",
"337 823 OFFCURVE",
"425 857 OFFCURVE",
"497 857 CURVE SMOOTH",
"648 857 OFFCURVE",
"733 744 OFFCURVE",
"733 541 CURVE SMOOTH",
"733 293 OFFCURVE",
"632 138 OFFCURVE",
"456 138 CURVE SMOOTH",
"317 138 OFFCURVE",
"245 197 OFFCURVE",
"221 325 CURVE",
"40 314 LINE",
"81 85 OFFCURVE",
"213 -22 OFFCURVE",
"458 -22 CURVE SMOOTH"
);
}
);
width = 1047;
}
);
note = g21;
},
{
glyphname = g22;
lastChange = "2016-11-10 14:51:27 +0000";
layers = (
{
layerId = "A575C30B-1DE4-4C59-99F4-F4D055544CA7";
paths = (
{
closed = 1;
nodes = (
"803 -22 OFFCURVE",
"988 157 OFFCURVE",
"1026 515 CURVE SMOOTH",
"1039 640 LINE",
"854 640 LINE",
"844 542 LINE SMOOTH",
"819 290 OFFCURVE",
"694 138 OFFCURVE",
"507 138 CURVE SMOOTH",
"347 138 OFFCURVE",
"264 222 OFFCURVE",
"264 373 CURVE SMOOTH",
"264 456 OFFCURVE",
"323 528 OFFCURVE",
"456 613 CURVE SMOOTH",
"575 690 OFFCURVE",
"661 754 OFFCURVE",
"712 805 CURVE SMOOTH",
"815 908 OFFCURVE",
"869 1032 OFFCURVE",
"869 1183 CURVE SMOOTH",
"869 1368 OFFCURVE",
"741 1484 OFFCURVE",
"520 1484 CURVE SMOOTH",
"287 1484 OFFCURVE",
"162 1390 OFFCURVE",
"123 1173 CURVE",
"311 1142 LINE",
"328 1263 OFFCURVE",
"396 1324 OFFCURVE",
"514 1324 CURVE SMOOTH",
"626 1324 OFFCURVE",
"675 1265 OFFCURVE",
"675 1180 CURVE SMOOTH",
"675 1067 OFFCURVE",
"637 984 OFFCURVE",
"581 917 CURVE SMOOTH",
"524 849 OFFCURVE",
"448 798 OFFCURVE",
"373 749 CURVE SMOOTH",
"297 700 OFFCURVE",
"221 653 OFFCURVE",
"165 593 CURVE SMOOTH",
"108 533 OFFCURVE",
"70 460 OFFCURVE",
"70 360 CURVE SMOOTH",
"70 285 OFFCURVE",
"86 219 OFFCURVE",
"118 161 CURVE SMOOTH",
"181 45 OFFCURVE",
"301 -22 OFFCURVE",
"472 -22 CURVE SMOOTH"
);
}
);
width = 1119;
}
);
note = g22;
},
{
glyphname = g23;
lastChange = "2016-11-10 14:51:27 +0000";
layers = (
{
layerId = "A575C30B-1DE4-4C59-99F4-F4D055544CA7";
paths = (
{
closed = 1;
nodes = (
"1568 -22 OFFCURVE",
"1699 132 OFFCURVE",
"1699 417 CURVE SMOOTH",
"1699 499 OFFCURVE",
"1692 567 OFFCURVE",
"1679 620 CURVE",
"1504 577 LINE",
"1514 525 OFFCURVE",
"1519 462 OFFCURVE",
"1519 389 CURVE SMOOTH",
"1519 208 OFFCURVE",
"1458 138 OFFCURVE",
"1330 138 CURVE SMOOTH",
"1254 138 OFFCURVE",
"1209 177 OFFCURVE",
"1209 249 CURVE SMOOTH",
"1209 293 OFFCURVE",
"1213 355 OFFCURVE",
"1222 435 CURVE SMOOTH",
"1231 515 OFFCURVE",
"1235 576 OFFCURVE",
"1235 619 CURVE SMOOTH",
"1235 854 OFFCURVE",
"1141 950 OFFCURVE",
"934 950 CURVE SMOOTH",
"859 950 OFFCURVE",
"790 935 OFFCURVE",
"729 904 CURVE",
"788 1462 LINE",
"604 1462 LINE",
"565 1105 LINE SMOOTH",
"553 997 OFFCURVE",
"508 937 OFFCURVE",
"401 937 CURVE SMOOTH",
"312 937 OFFCURVE",
"269 984 OFFCURVE",
"269 1085 CURVE",
"273 1152 LINE",
"304 1462 LINE",
"120 1462 LINE",
"83 1105 LINE",
"80 1051 LINE",
"80 867 OFFCURVE",
"191 777 OFFCURVE",
"372 777 CURVE SMOOTH",
"431 777 OFFCURVE",
"485 789 OFFCURVE",
"534 813 CURVE",
"450 0 LINE",
"634 0 LINE",
"710 722 LINE",
"755 767 OFFCURVE",
"816 790 OFFCURVE",
"892 790 CURVE SMOOTH",
"1008 790 OFFCURVE",
"1049 740 OFFCURVE",
"1049 599 CURVE SMOOTH",
"1049 552 OFFCURVE",
"1044 493 OFFCURVE",
"1034 421 CURVE SMOOTH",
"1024 348 OFFCURVE",
"1019 291 OFFCURVE",
"1019 248 CURVE SMOOTH",
"1019 71 OFFCURVE",
"1115 -22 OFFCURVE",
"1324 -22 CURVE SMOOTH"
);
}
);
width = 1779;
}
);
note = g23;
},
{
glyphname = g24;
lastChange = "2016-11-10 14:51:27 +0000";
layers = (
{
layerId = "A575C30B-1DE4-4C59-99F4-F4D055544CA7";
paths = (
{
closed = 1;
nodes = (
"872 -22 OFFCURVE",
"1046 166 OFFCURVE",
"1107 550 CURVE",
"912 550 LINE",
"905 475 OFFCURVE",
"884 404 OFFCURVE",
"849 337 CURVE SMOOTH",
"780 203 OFFCURVE",
"675 138 OFFCURVE",
"555 138 CURVE SMOOTH",
"390 138 OFFCURVE",
"291 249 OFFCURVE",
"291 448 CURVE SMOOTH",
"291 587 OFFCURVE",
"341 697 OFFCURVE",
"442 779 CURVE",
"514 716 OFFCURVE",
"604 684 OFFCURVE",
"712 684 CURVE SMOOTH",
"896 684 OFFCURVE",
"996 794 OFFCURVE",
"996 979 CURVE SMOOTH",
"996 1140 OFFCURVE",
"963 1354 OFFCURVE",
"922 1462 CURVE",
"738 1462 LINE",
"781 1329 OFFCURVE",
"809 1121 OFFCURVE",
"809 973 CURVE SMOOTH",
"809 890 OFFCURVE",
"767 844 OFFCURVE",
"688 844 CURVE SMOOTH",
"645 844 OFFCURVE",
"605 862 OFFCURVE",
"568 897 CURVE SMOOTH",
"494 968 OFFCURVE",
"439 1119 OFFCURVE",
"420 1290 CURVE SMOOTH",
"402 1462 LINE",
"217 1462 LINE",
"240 1252 LINE SMOOTH",
"254 1116 OFFCURVE",
"288 1000 OFFCURVE",
"342 904 CURVE",
"190 792 OFFCURVE",
"100 621 OFFCURVE",
"100 425 CURVE SMOOTH",
"100 344 OFFCURVE",
"118 270 OFFCURVE",
"153 201 CURVE SMOOTH",
"224 64 OFFCURVE",
"359 -22 OFFCURVE",
"532 -22 CURVE SMOOTH"
);
}
);
width = 1187;
}
);
note = g24;
},
{
glyphname = g25;
lastChange = "2016-11-10 14:51:27 +0000";
layers = (
{
layerId = "A575C30B-1DE4-4C59-99F4-F4D055544CA7";
paths = (
{
closed = 1;
nodes = (
"835 -22 OFFCURVE",
"1020 169 OFFCURVE",
"1059 542 CURVE SMOOTH",
"1069 640 LINE",
"884 640 LINE",
"876 561 LINE SMOOTH",
"845 292 OFFCURVE",
"728 138 OFFCURVE",
"547 138 CURVE SMOOTH",
"368 138 OFFCURVE",
"291 225 OFFCURVE",
"291 428 CURVE SMOOTH",
"291 547 OFFCURVE",
"343 650 OFFCURVE",
"482 778 CURVE",
"582 690 LINE",
"710 821 LINE",
"679 842 OFFCURVE",
"647 868 OFFCURVE",
"612 898 CURVE",
"739 1026 OFFCURVE",
"778 1118 OFFCURVE",
"778 1233 CURVE SMOOTH",
"778 1389 OFFCURVE",
"666 1484 OFFCURVE",
"490 1484 CURVE SMOOTH",
"305 1484 OFFCURVE",
"183 1382 OFFCURVE",
"183 1223 CURVE SMOOTH",
"183 1118 OFFCURVE",
"236 1018 OFFCURVE",
"352 898 CURVE",
"177 735 OFFCURVE",
"100 587 OFFCURVE",
"100 415 CURVE SMOOTH",
"100 138 OFFCURVE",
"251 -22 OFFCURVE",
"512 -22 CURVE SMOOTH"
);
},
{
closed = 1;
nodes = (
"405 1088 OFFCURVE",
"367 1158 OFFCURVE",
"367 1221 CURVE SMOOTH",
"367 1280 OFFCURVE",
"419 1324 OFFCURVE",
"484 1324 CURVE SMOOTH",
"548 1324 OFFCURVE",
"593 1291 OFFCURVE",
"593 1230 CURVE SMOOTH",
"593 1153 OFFCURVE",
"568 1095 OFFCURVE",
"481 1012 CURVE"
);
}
);
width = 1149;
}
);
note = g25;
},
{
glyphname = g26;
lastChange = "2016-11-10 14:51:27 +0000";
layers = (
{
layerId = "A575C30B-1DE4-4C59-99F4-F4D055544CA7";
paths = (
{
closed = 1;
nodes = (
"766 -22 OFFCURVE",
"939 133 OFFCURVE",
"939 394 CURVE SMOOTH",
"939 445 OFFCURVE",
"930 491 OFFCURVE",
"911 534 CURVE SMOOTH",
"873 619 OFFCURVE",
"812 687 OFFCURVE",
"659 798 CURVE SMOOTH",
"564 866 OFFCURVE",
"502 915 OFFCURVE",
"473 945 CURVE SMOOTH",
"414 1004 OFFCURVE",
"378 1067 OFFCURVE",
"378 1144 CURVE SMOOTH",
"378 1183 OFFCURVE",
"387 1215 OFFCURVE",
"404 1242 CURVE SMOOTH",
"438 1294 OFFCURVE",
"498 1324 OFFCURVE",
"563 1324 CURVE SMOOTH",
"648 1324 OFFCURVE",
"729 1289 OFFCURVE",
"805 1219 CURVE",
"902 1359 LINE",
"815 1442 OFFCURVE",
"699 1484 OFFCURVE",
"555 1484 CURVE SMOOTH",
"330 1484 OFFCURVE",
"184 1348 OFFCURVE",
"184 1128 CURVE SMOOTH",
"184 1027 OFFCURVE",
"218 949 OFFCURVE",
"269 885 CURVE SMOOTH",
"320 820 OFFCURVE",
"389 768 OFFCURVE",
"458 720 CURVE SMOOTH",
"526 671 OFFCURVE",
"596 624 OFFCURVE",
"649 571 CURVE SMOOTH",
"702 518 OFFCURVE",
"740 457 OFFCURVE",
"745 378 CURVE",
"745 218 OFFCURVE",
"648 138 OFFCURVE",
"472 138 CURVE SMOOTH",
"351 138 OFFCURVE",
"239 191 OFFCURVE",
"126 320 CURVE",
"0 193 LINE",
"124 50 OFFCURVE",
"282 -22 OFFCURVE",
"474 -22 CURVE SMOOTH"
);
}
);
width = 1039;
}
);
note = g26;
},
{
glyphname = g27;
lastChange = "2016-11-10 14:51:27 +0000";
layers = (
{
layerId = "A575C30B-1DE4-4C59-99F4-F4D055544CA7";
paths = (
{
closed = 1;
nodes = (
"623 -22 OFFCURVE",
"758 142 OFFCURVE",
"758 437 CURVE SMOOTH",
"758 484 OFFCURVE",
"751 545 OFFCURVE",
"738 620 CURVE",
"563 577 LINE",
"573 520 OFFCURVE",
"578 468 OFFCURVE",
"578 421 CURVE SMOOTH",
"578 234 OFFCURVE",
"509 138 OFFCURVE",
"389 138 CURVE SMOOTH",
"306 138 OFFCURVE",
"270 194 OFFCURVE",
"270 322 CURVE SMOOTH",
"270 354 OFFCURVE",
"275 420 OFFCURVE",
"286 521 CURVE SMOOTH",
"386 1462 LINE",
"202 1462 LINE",
"86 387 LINE SMOOTH",
"82 355 OFFCURVE",
"80 325 OFFCURVE",
"80 296 CURVE SMOOTH",
"80 100 OFFCURVE",
"198 -22 OFFCURVE",
"383 -22 CURVE SMOOTH"
);
}
);
width = 838;
}
);
note = g27;
},
{
glyphname = g28;
lastChange = "2016-11-10 14:51:27 +0000";
layers = (
{
layerId = "A575C30B-1DE4-4C59-99F4-F4D055544CA7";
paths = (
{
closed = 1;
nodes = (
"454 -13 OFFCURVE",
"616 113 OFFCURVE",
"730 310 CURVE SMOOTH",
"844 507 OFFCURVE",
"913 792 OFFCURVE",
"913 1053 CURVE SMOOTH",
"913 1324 OFFCURVE",
"761 1484 OFFCURVE",
"518 1484 CURVE SMOOTH",
"243 1484 OFFCURVE",
"80 1298 OFFCURVE",
"80 991 CURVE SMOOTH",
"80 726 OFFCURVE",
"233 559 OFFCURVE",
"473 559 CURVE SMOOTH",
"541 559 OFFCURVE",
"603 571 OFFCURVE",
"659 596 CURVE",
"579 323 OFFCURVE",
"429 159 OFFCURVE",
"226 107 CURVE",
"255 -46 LINE"
);
},
{
closed = 1;
nodes = (
"343 719 OFFCURVE",
"274 805 OFFCURVE",
"274 990 CURVE SMOOTH",
"274 1212 OFFCURVE",
"352 1323 OFFCURVE",
"508 1323 CURVE SMOOTH",
"643 1323 OFFCURVE",
"719 1227 OFFCURVE",
"719 1052 CURVE SMOOTH",
"719 836 OFFCURVE",
"640 719 OFFCURVE",
"483 719 CURVE SMOOTH"
);
}
);
width = 1033;
}
);
note = g28;
},
{
glyphname = g29;
lastChange = "2016-11-10 14:51:27 +0000";
layers = (
{
layerId = "A575C30B-1DE4-4C59-99F4-F4D055544CA7";
paths = (
{
closed = 1;
nodes = (
"1414 -22 OFFCURVE",
"1545 132 OFFCURVE",
"1545 417 CURVE SMOOTH",
"1545 478 OFFCURVE",
"1538 545 OFFCURVE",
"1525 620 CURVE",
"1350 577 LINE",
"1360 490 OFFCURVE",
"1365 428 OFFCURVE",
"1365 389 CURVE SMOOTH",
"1365 208 OFFCURVE",
"1304 138 OFFCURVE",
"1176 138 CURVE SMOOTH",
"1100 138 OFFCURVE",
"1055 177 OFFCURVE",
"1055 249 CURVE SMOOTH",
"1055 293 OFFCURVE",
"1059 355 OFFCURVE",
"1068 435 CURVE SMOOTH",
"1077 515 OFFCURVE",
"1081 576 OFFCURVE",
"1081 619 CURVE SMOOTH",
"1081 854 OFFCURVE",
"987 950 OFFCURVE",
"780 950 CURVE SMOOTH",
"705 950 OFFCURVE",
"637 935 OFFCURVE",
"576 904 CURVE",
"599 1115 LINE",
"601 1153 LINE",
"601 1378 OFFCURVE",
"496 1484 OFFCURVE",
"283 1484 CURVE SMOOTH",
"160 1484 OFFCURVE",
"66 1456 OFFCURVE",
"0 1400 CURVE",
"100 1267 LINE",
"139 1304 OFFCURVE",
"198 1324 OFFCURVE",
"247 1324 CURVE SMOOTH",
"364 1324 OFFCURVE",
"412 1268 OFFCURVE",
"412 1133 CURVE SMOOTH",
"412 1106 LINE",
"297 0 LINE",
"481 0 LINE",
"557 723 LINE",
"602 768 OFFCURVE",
"662 790 OFFCURVE",
"738 790 CURVE SMOOTH",
"854 790 OFFCURVE",
"895 740 OFFCURVE",
"895 599 CURVE SMOOTH",
"895 552 OFFCURVE",
"890 493 OFFCURVE",
"880 421 CURVE SMOOTH",
"870 348 OFFCURVE",
"865 291 OFFCURVE",
"865 248 CURVE SMOOTH",
"865 71 OFFCURVE",
"961 -22 OFFCURVE",
"1170 -22 CURVE SMOOTH"
);
}
);
width = 1625;
}
);
note = g29;
},
{
glyphname = g30;
lastChange = "2016-11-10 14:51:27 +0000";
layers = (
{
layerId = "A575C30B-1DE4-4C59-99F4-F4D055544CA7";
paths = (
{
closed = 1;
nodes = (
"184 0 LINE",
"215 283 LINE SMOOTH",
"234 470 OFFCURVE",
"334 590 OFFCURVE",
"482 590 CURVE SMOOTH",
"573 590 OFFCURVE",
"634 558 OFFCURVE",
"667 494 CURVE",
"615 0 LINE",
"799 0 LINE",
"872 681 OFFCURVE",
"910 1040 OFFCURVE",
"914 1078 CURVE SMOOTH",
"917 1115 OFFCURVE",
"919 1140 OFFCURVE",
"919 1153 CURVE SMOOTH",
"919 1378 OFFCURVE",
"814 1484 OFFCURVE",
"601 1484 CURVE SMOOTH",
"478 1484 OFFCURVE",
"384 1456 OFFCURVE",
"318 1400 CURVE",
"418 1267 LINE",
"457 1304 OFFCURVE",
"516 1324 OFFCURVE",
"565 1324 CURVE SMOOTH",
"686 1324 OFFCURVE",
"730 1273 OFFCURVE",
"730 1144 CURVE",
"721 1013 LINE",
"687 692 LINE",
"629 731 OFFCURVE",
"558 750 OFFCURVE",
"473 750 CURVE SMOOTH",
"208 750 OFFCURVE",
"61 597 OFFCURVE",
"30 292 CURVE SMOOTH",
"0 0 LINE"
);
}
);
width = 1029;
}
);
note = g30;
},
{
glyphname = g31;
lastChange = "2016-11-10 14:51:27 +0000";
layers = (
{
layerId = "A575C30B-1DE4-4C59-99F4-F4D055544CA7";
paths = (
{
closed = 1;
nodes = (
"834 0 LINE",
"923 847 LINE",
"739 847 LINE",
"722 683 LINE",
"686 638 OFFCURVE",
"599 605 OFFCURVE",
"530 605 CURVE SMOOTH",
"379 605 OFFCURVE",
"294 718 OFFCURVE",
"294 921 CURVE SMOOTH",
"294 1169 OFFCURVE",
"395 1324 OFFCURVE",
"571 1324 CURVE SMOOTH",
"710 1324 OFFCURVE",
"782 1264 OFFCURVE",
"806 1137 CURVE",
"987 1148 LINE",
"946 1377 OFFCURVE",
"814 1484 OFFCURVE",
"569 1484 CURVE SMOOTH",
"269 1484 OFFCURVE",
"100 1279 OFFCURVE",
"100 914 CURVE SMOOTH",
"100 621 OFFCURVE",
"258 445 OFFCURVE",
"518 445 CURVE SMOOTH",
"585 445 OFFCURVE",
"646 458 OFFCURVE",
"701 483 CURVE",
"650 0 LINE"
);
}
);
width = 1097;
}
);
note = g31;
},
{
glyphname = g32;
lastChange = "2016-11-10 14:51:27 +0000";
layers = (
{
layerId = "A575C30B-1DE4-4C59-99F4-F4D055544CA7";
paths = (
{
closed = 1;
nodes = (
"579 -22 OFFCURVE",
"688 14 OFFCURVE",
"759 85 CURVE",
"811 14 OFFCURVE",
"890 -22 OFFCURVE",
"996 -22 CURVE SMOOTH",
"1236 -22 OFFCURVE",
"1371 142 OFFCURVE",
"1371 437 CURVE SMOOTH",
"1371 484 OFFCURVE",
"1364 545 OFFCURVE",
"1351 620 CURVE",
"1176 577 LINE",
"1186 514 OFFCURVE",
"1191 462 OFFCURVE",
"1191 421 CURVE SMOOTH",
"1191 234 OFFCURVE",
"1122 138 OFFCURVE",
"1002 138 CURVE SMOOTH",
"919 138 OFFCURVE",
"886 191 OFFCURVE",
"886 320 CURVE SMOOTH",
"886 369 OFFCURVE",
"891 434 OFFCURVE",
"900 516 CURVE SMOOTH",
"999 1462 LINE",
"816 1462 LINE",
"717 516 LINE SMOOTH",
"706 413 OFFCURVE",
"690 336 OFFCURVE",
"670 287 CURVE SMOOTH",
"630 188 OFFCURVE",
"562 138 OFFCURVE",
"453 138 CURVE SMOOTH",
"325 138 OFFCURVE",
"270 200 OFFCURVE",
"270 377 CURVE SMOOTH",
"270 418 OFFCURVE",
"273 463 OFFCURVE",
"278 514 CURVE SMOOTH",
"377 1462 LINE",
"192 1462 LINE",
"126 837 OFFCURVE",
"91 499 OFFCURVE",
"87 448 CURVE SMOOTH",
"82 397 OFFCURVE",
"80 355 OFFCURVE",
"80 324 CURVE SMOOTH",
"80 95 OFFCURVE",
"206 -22 OFFCURVE",
"433 -22 CURVE SMOOTH"
);
}
);
width = 1451;
}
);
note = g32;
},
{
glyphname = g33;
lastChange = "2016-11-10 14:51:27 +0000";
layers = (
{
layerId = "A575C30B-1DE4-4C59-99F4-F4D055544CA7";
paths = (
{
closed = 1;
nodes = (
"1829 -22 OFFCURVE",
"1964 142 OFFCURVE",
"1964 437 CURVE SMOOTH",
"1964 497 OFFCURVE",
"1957 558 OFFCURVE",
"1944 620 CURVE",
"1769 577 LINE",
"1779 520 OFFCURVE",
"1784 468 OFFCURVE",
"1784 421 CURVE SMOOTH",
"1784 234 OFFCURVE",
"1715 138 OFFCURVE",
"1595 138 CURVE SMOOTH",
"1513 138 OFFCURVE",
"1472 192 OFFCURVE",
"1472 300 CURVE SMOOTH",
"1472 327 OFFCURVE",
"1477 381 OFFCURVE",
"1488 463 CURVE SMOOTH",
"1498 544 OFFCURVE",
"1503 596 OFFCURVE",
"1503 618 CURVE SMOOTH",
"1503 805 OFFCURVE",
"1395 910 OFFCURVE",
"1203 910 CURVE SMOOTH",
"1104 910 OFFCURVE",
"1020 878 OFFCURVE",
"952 814 CURVE",
"898 878 OFFCURVE",
"821 910 OFFCURVE",
"721 910 CURVE SMOOTH",
"659 910 OFFCURVE",
"603 898 OFFCURVE",
"554 874 CURVE",
"572 1045 OFFCURVE",
"581 1138 OFFCURVE",
"581 1154 CURVE SMOOTH",
"581 1377 OFFCURVE",
"480 1484 OFFCURVE",
"263 1484 CURVE SMOOTH",
"140 1484 OFFCURVE",
"46 1456 OFFCURVE",
"-20 1400 CURVE",
"80 1267 LINE",
"119 1304 OFFCURVE",
"178 1324 OFFCURVE",
"227 1324 CURVE SMOOTH",
"343 1324 OFFCURVE",
"392 1270 OFFCURVE",
"392 1134 CURVE SMOOTH",
"392 1125 OFFCURVE",
"355 747 OFFCURVE",
"280 0 CURVE",
"464 0 LINE",
"528 582 LINE SMOOTH",
"540 690 OFFCURVE",
"585 750 OFFCURVE",
"692 750 CURVE SMOOTH",
"781 750 OFFCURVE",
"824 703 OFFCURVE",
"824 602 CURVE",
"820 535 LINE",
"764 0 LINE",
"948 0 LINE",
"1010 582 LINE SMOOTH",
"1021 694 OFFCURVE",
"1079 750 OFFCURVE",
"1184 750 CURVE SMOOTH",
"1267 750 OFFCURVE",
"1309 700 OFFCURVE",
"1309 613 CURVE SMOOTH",
"1309 576 OFFCURVE",
"1304 521 OFFCURVE",
"1295 448 CURVE SMOOTH",
"1285 375 OFFCURVE",
"1280 321 OFFCURVE",
"1280 286 CURVE SMOOTH",
"1280 81 OFFCURVE",
"1383 -22 OFFCURVE",
"1589 -22 CURVE SMOOTH"
);
}
);
width = 2044;
}
);
note = g33;
},
{
glyphname = g34;
lastChange = "2016-11-10 14:51:27 +0000";
layers = (
{
layerId = "A575C30B-1DE4-4C59-99F4-F4D055544CA7";
paths = (
{
closed = 1;
nodes = (
"942 -22 OFFCURVE",
"1157 282 OFFCURVE",
"1157 838 CURVE SMOOTH",
"1157 1261 OFFCURVE",
"993 1484 OFFCURVE",
"685 1484 CURVE SMOOTH",
"320 1484 OFFCURVE",
"100 1164 OFFCURVE",
"100 647 CURVE SMOOTH",
"100 212 OFFCURVE",
"259 -22 OFFCURVE",
"555 -22 CURVE SMOOTH"
);
},
{
closed = 1;
nodes = (
"390 138 OFFCURVE",
"294 307 OFFCURVE",
"294 631 CURVE SMOOTH",
"294 1050 OFFCURVE",
"441 1324 OFFCURVE",
"680 1324 CURVE SMOOTH",
"869 1324 OFFCURVE",
"963 1166 OFFCURVE",
"963 809 CURVE SMOOTH",
"963 675 OFFCURVE",
"947 558 OFFCURVE",
"916 457 CURVE SMOOTH",
"852 255 OFFCURVE",
"728 138 OFFCURVE",
"577 138 CURVE SMOOTH"
);
}
);
width = 1287;
}
);
note = g34;
},
{
glyphname = g35;
lastChange = "2016-11-10 14:51:27 +0000";
layers = (
{
layerId = "A575C30B-1DE4-4C59-99F4-F4D055544CA7";
paths = (
{
closed = 1;
nodes = (
"566 -22 OFFCURVE",
"741 126 OFFCURVE",
"741 423 CURVE SMOOTH",
"741 539 OFFCURVE",
"695 647 OFFCURVE",
"595 782 CURVE SMOOTH",
"488 925 OFFCURVE",
"449 1016 OFFCURVE",
"449 1116 CURVE SMOOTH",
"449 1239 OFFCURVE",
"541 1324 OFFCURVE",
"662 1324 CURVE SMOOTH",
"701 1324 OFFCURVE",
"735 1323 OFFCURVE",
"764 1320 CURVE",
"764 1479 LINE",
"715 1482 OFFCURVE",
"676 1484 OFFCURVE",
"645 1484 CURVE SMOOTH",
"570 1484 OFFCURVE",
"502 1468 OFFCURVE",
"443 1436 CURVE SMOOTH",
"323 1371 OFFCURVE",
"255 1243 OFFCURVE",
"255 1079 CURVE SMOOTH",
"255 968 OFFCURVE",
"301 863 OFFCURVE",
"401 735 CURVE SMOOTH",
"504 603 OFFCURVE",
"547 510 OFFCURVE",
"547 413 CURVE SMOOTH",
"547 344 OFFCURVE",
"536 291 OFFCURVE",
"514 254 CURVE SMOOTH",
"469 178 OFFCURVE",
"375 138 OFFCURVE",
"218 138 CURVE SMOOTH",
"129 138 OFFCURVE",
"57 145 OFFCURVE",
"2 160 CURVE",
"0 -3 LINE",
"65 -16 OFFCURVE",
"137 -22 OFFCURVE",
"217 -22 CURVE SMOOTH"
);
}
);
width = 904;
}
);
note = g35;
},
{
glyphname = g36;
lastChange = "2016-11-10 14:51:27 +0000";
layers = (
{
layerId = "A575C30B-1DE4-4C59-99F4-F4D055544CA7";
paths = (
{
closed = 1;
nodes = (
"913 -22 OFFCURVE",
"1101 175 OFFCURVE",
"1138 542 CURVE SMOOTH",
"1148 640 LINE",
"963 640 LINE",
"956 569 LINE SMOOTH",
"928 298 OFFCURVE",
"800 138 OFFCURVE",
"616 138 CURVE SMOOTH",
"441 138 OFFCURVE",
"340 246 OFFCURVE",
"340 430 CURVE SMOOTH",
"340 625 OFFCURVE",
"454 795 OFFCURVE",
"629 854 CURVE",
"581 1006 LINE",
"519 983 OFFCURVE",
"461 953 OFFCURVE",
"408 915 CURVE",
"345 978 OFFCURVE",
"314 1047 OFFCURVE",
"314 1122 CURVE SMOOTH",
"314 1245 OFFCURVE",
"401 1324 OFFCURVE",
"540 1324 CURVE SMOOTH",
"637 1324 OFFCURVE",
"708 1281 OFFCURVE",
"755 1196 CURVE",
"905 1307 LINE",
"826 1425 OFFCURVE",
"706 1484 OFFCURVE",
"545 1484 CURVE SMOOTH",
"457 1484 OFFCURVE",
"382 1470 OFFCURVE",
"319 1443 CURVE SMOOTH",
"193 1387 OFFCURVE",
"120 1268 OFFCURVE",
"120 1115 CURVE SMOOTH",
"120 981 OFFCURVE",
"170 870 OFFCURVE",
"270 781 CURVE",
"194 689 OFFCURVE",
"146 555 OFFCURVE",
"146 415 CURVE SMOOTH",
"146 334 OFFCURVE",
"164 260 OFFCURVE",
"201 193 CURVE SMOOTH",
"273 60 OFFCURVE",
"408 -22 OFFCURVE",
"581 -22 CURVE SMOOTH"
);
}
);
width = 1228;
}
);
note = g36;
},
{
glyphname = g37;
lastChange = "2016-11-10 14:51:27 +0000";
layers = (
{
layerId = "A575C30B-1DE4-4C59-99F4-F4D055544CA7";
paths = (
{
closed = 1;
nodes = (
"1123 -22 OFFCURVE",
"1192 -10 OFFCURVE",
"1249 15 CURVE",
"1208 176 LINE",
"1173 151 OFFCURVE",
"1130 138 OFFCURVE",
"1080 138 CURVE SMOOTH",
"987 138 OFFCURVE",
"941 183 OFFCURVE",
"941 291 CURVE",
"944 348 LINE",
"961 498 OFFCURVE",
"969 588 OFFCURVE",
"969 619 CURVE SMOOTH",
"969 831 OFFCURVE",
"841 950 OFFCURVE",
"614 950 CURVE SMOOTH",
"546 950 OFFCURVE",
"485 938 OFFCURVE",
"430 913 CURVE",
"471 1302 LINE",
"560 1302 LINE SMOOTH",
"683 1302 OFFCURVE",
"796 1310 OFFCURVE",
"899 1325 CURVE",
"921 1494 LINE",
"827 1473 OFFCURVE",
"706 1462 OFFCURVE",
"558 1462 CURVE SMOOTH",
"473 1462 LINE SMOOTH",
"325 1462 OFFCURVE",
"178 1477 OFFCURVE",
"103 1496 CURVE",
"80 1334 LINE",
"137 1322 OFFCURVE",
"205 1314 OFFCURVE",
"286 1309 CURVE",
"149 0 LINE",
"334 0 LINE",
"412 742 LINE",
"454 774 OFFCURVE",
"507 790 OFFCURVE",
"572 790 CURVE SMOOTH",
"703 790 OFFCURVE",
"783 722 OFFCURVE",
"783 599 CURVE SMOOTH",
"783 573 OFFCURVE",
"775 488 OFFCURVE",
"760 343 CURVE",
"756 279 LINE",
"756 82 OFFCURVE",
"860 -22 OFFCURVE",
"1044 -22 CURVE SMOOTH"
);
}
);
width = 1279;
}
);
note = g37;
},
{
glyphname = g38;
lastChange = "2016-11-10 14:51:27 +0000";
layers = (
{
layerId = "A575C30B-1DE4-4C59-99F4-F4D055544CA7";
paths = (
{
closed = 1;
nodes = (
"583 -22 OFFCURVE",
"662 -5 OFFCURVE",
"732 29 CURVE SMOOTH",
"871 97 OFFCURVE",
"953 227 OFFCURVE",
"953 396 CURVE SMOOTH",
"953 483 OFFCURVE",
"921 559 OFFCURVE",
"865 636 CURVE SMOOTH",
"837 675 OFFCURVE",
"785 732 OFFCURVE",
"708 809 CURVE",
"924 994 OFFCURVE",
"1015 1159 OFFCURVE",
"1034 1344 CURVE SMOOTH",
"1046 1462 LINE",
"862 1462 LINE",
"848 1330 LINE SMOOTH",
"831 1182 OFFCURVE",
"751 1059 OFFCURVE",
"596 923 CURVE",
"477 1052 OFFCURVE",
"427 1162 OFFCURVE",
"427 1285 CURVE SMOOTH",
"427 1308 LINE",
"443 1462 LINE",
"259 1462 LINE",
"248 1357 OFFCURVE",
"243 1295 OFFCURVE",
"243 1275 CURVE SMOOTH",
"243 1116 OFFCURVE",
"301 977 OFFCURVE",
"461 809 CURVE",
"362 728 OFFCURVE",
"291 664 OFFCURVE",
"249 616 CURVE SMOOTH",
"165 519 OFFCURVE",
"120 422 OFFCURVE",
"120 306 CURVE SMOOTH",
"120 99 OFFCURVE",
"263 -22 OFFCURVE",
"496 -22 CURVE SMOOTH"
);
},
{
closed = 1;
nodes = (
"392 138 OFFCURVE",
"314 212 OFFCURVE",
"314 333 CURVE SMOOTH",
"314 412 OFFCURVE",
"346 479 OFFCURVE",
"406 548 CURVE SMOOTH",
"436 582 OFFCURVE",
"491 632 OFFCURVE",
"572 698 CURVE",
"721 553 OFFCURVE",
"759 478 OFFCURVE",
"759 395 CURVE SMOOTH",
"759 340 OFFCURVE",
"748 293 OFFCURVE",
"726 256 CURVE SMOOTH",
"682 180 OFFCURVE",
"604 138 OFFCURVE",
"515 138 CURVE SMOOTH"
);
}
);
width = 1166;
}
);
note = g38;
},
{
glyphname = g39;
lastChange = "2016-11-10 14:51:27 +0000";
layers = (
{
layerId = "A575C30B-1DE4-4C59-99F4-F4D055544CA7";
paths = (
{
closed = 1;
nodes = (
"731 -22 OFFCURVE",
"866 134 OFFCURVE",
"866 437 CURVE SMOOTH",
"866 484 OFFCURVE",
"859 545 OFFCURVE",
"846 620 CURVE",
"671 577 LINE",
"681 512 OFFCURVE",
"686 460 OFFCURVE",
"686 421 CURVE SMOOTH",
"686 234 OFFCURVE",
"615 138 OFFCURVE",
"488 138 CURVE SMOOTH",
"359 138 OFFCURVE",
"310 189 OFFCURVE",
"310 300 CURVE SMOOTH",
"310 363 OFFCURVE",
"320 411 OFFCURVE",
"365 532 CURVE SMOOTH",
"402 629 OFFCURVE",
"420 727 OFFCURVE",
"420 827 CURVE SMOOTH",
"420 854 OFFCURVE",
"416 888 OFFCURVE",
"407 929 CURVE",
"479 931 OFFCURVE",
"540 944 OFFCURVE",
"591 968 CURVE SMOOTH",
"692 1016 OFFCURVE",
"754 1118 OFFCURVE",
"754 1233 CURVE SMOOTH",
"754 1392 OFFCURVE",
"655 1485 OFFCURVE",
"482 1485 CURVE SMOOTH",
"295 1485 OFFCURVE",
"175 1382 OFFCURVE",
"175 1223 CURVE SMOOTH",
"175 1182 OFFCURVE",
"185 1119 OFFCURVE",
"205 1034 CURVE SMOOTH",
"224 949 OFFCURVE",
"234 879 OFFCURVE",
"234 825 CURVE SMOOTH",
"234 714 OFFCURVE",
"215 614 OFFCURVE",
"177 525 CURVE SMOOTH",
"136 429 OFFCURVE",
"120 368 OFFCURVE",
"120 296 CURVE SMOOTH",
"120 75 OFFCURVE",
"235 -22 OFFCURVE",
"482 -22 CURVE SMOOTH"
);
},
{
closed = 1;
nodes = (
"370 1152 OFFCURVE",
"365 1196 OFFCURVE",
"365 1221 CURVE SMOOTH",
"365 1281 OFFCURVE",
"411 1325 OFFCURVE",
"476 1325 CURVE SMOOTH",
"528 1325 OFFCURVE",
"570 1299 OFFCURVE",
"570 1230 CURVE SMOOTH",
"570 1137 OFFCURVE",
"520 1088 OFFCURVE",
"380 1088 CURVE"
);
}
);
width = 946;
}
);
note = g39;
},
{
glyphname = g40;
lastChange = "2016-11-10 14:51:27 +0000";
layers = (
{
layerId = "A575C30B-1DE4-4C59-99F4-F4D055544CA7";
paths = (
{
closed = 1;
nodes = (
"312 -36 OFFCURVE",
"401 -7 OFFCURVE",
"472 37 CURVE SMOOTH",
"612 125 OFFCURVE",
"687 262 OFFCURVE",
"712 513 CURVE SMOOTH",
"808 1462 LINE",
"624 1462 LINE",
"585 1105 LINE SMOOTH",
"573 997 OFFCURVE",
"528 937 OFFCURVE",
"421 937 CURVE SMOOTH",
"332 937 OFFCURVE",
"289 984 OFFCURVE",
"289 1085 CURVE",
"293 1152 LINE",
"324 1462 LINE",
"140 1462 LINE",
"103 1105 LINE",
"100 1051 LINE",
"100 867 OFFCURVE",
"211 777 OFFCURVE",
"392 777 CURVE SMOOTH",
"453 777 OFFCURVE",
"509 790 OFFCURVE",
"558 815 CURVE",
"528 525 LINE SMOOTH",
"518 430 OFFCURVE",
"501 356 OFFCURVE",
"477 302 CURVE SMOOTH",
"428 194 OFFCURVE",
"348 141 OFFCURVE",
"176 110 CURVE",
"205 -50 LINE"
);
}
);
width = 928;
}
);
note = g40;
},
{
glyphname = g41;
lastChange = "2016-11-10 14:51:27 +0000";
layers = (
{
layerId = "A575C30B-1DE4-4C59-99F4-F4D055544CA7";
paths = (
{
closed = 1;
nodes = (
"479 -22 OFFCURVE",
"579 8 OFFCURVE",
"662 69 CURVE SMOOTH",
"828 189 OFFCURVE",
"920 446 OFFCURVE",
"920 782 CURVE SMOOTH",
"920 1213 OFFCURVE",
"741 1484 OFFCURVE",
"422 1484 CURVE SMOOTH",
"348 1484 OFFCURVE",
"282 1478 OFFCURVE",
"225 1466 CURVE",
"259 1315 LINE",
"304 1321 OFFCURVE",
"352 1324 OFFCURVE",
"403 1324 CURVE SMOOTH",
"614 1324 OFFCURVE",
"726 1125 OFFCURVE",
"726 777 CURVE SMOOTH",
"726 641 OFFCURVE",
"712 525 OFFCURVE",
"683 430 CURVE SMOOTH",
"626 238 OFFCURVE",
"521 138 OFFCURVE",
"382 138 CURVE SMOOTH",
"264 138 OFFCURVE",
"178 167 OFFCURVE",
"123 224 CURVE",
"20 96 LINE",
"96 17 OFFCURVE",
"210 -22 OFFCURVE",
"363 -22 CURVE SMOOTH"
);
}
);
width = 1050;
}
);
note = g41;
},
{
glyphname = g42;
lastChange = "2016-11-10 14:51:27 +0000";
layers = (
{
layerId = "A575C30B-1DE4-4C59-99F4-F4D055544CA7";
paths = (
{
closed = 1;
nodes = (
"687 -22 OFFCURVE",
"807 16 OFFCURVE",
"899 92 CURVE",
"825 227 LINE",
"758 168 OFFCURVE",
"666 138 OFFCURVE",
"550 138 CURVE SMOOTH",
"390 138 OFFCURVE",
"304 265 OFFCURVE",
"304 509 CURVE SMOOTH",
"304 642 OFFCURVE",
"324 776 OFFCURVE",
"364 911 CURVE SMOOTH",
"443 1181 OFFCURVE",
"578 1324 OFFCURVE",
"737 1324 CURVE SMOOTH",
"822 1324 OFFCURVE",
"879 1321 OFFCURVE",
"907 1315 CURVE",
"971 1466 LINE",
"917 1478 OFFCURVE",
"845 1484 OFFCURVE",
"755 1484 CURVE SMOOTH",
"636 1484 OFFCURVE",
"529 1441 OFFCURVE",
"432 1355 CURVE SMOOTH",
"238 1183 OFFCURVE",
"110 839 OFFCURVE",
"110 510 CURVE SMOOTH",
"110 149 OFFCURVE",
"254 -22 OFFCURVE",
"538 -22 CURVE SMOOTH"
);
}
);
width = 1031;
}
);
note = g42;
},
{
glyphname = g43;
lastChange = "2016-11-10 14:51:27 +0000";
layers = (
{
layerId = "A575C30B-1DE4-4C59-99F4-F4D055544CA7";
paths = (
{
closed = 1;
nodes = (
"618 -22 OFFCURVE",
"707 -3 OFFCURVE",
"776 34 CURVE SMOOTH",
"915 108 OFFCURVE",
"987 240 OFFCURVE",
"1016 516 CURVE SMOOTH",
"1115 1462 LINE",
"932 1462 LINE",
"833 516 LINE SMOOTH",
"821 409 OFFCURVE",
"804 332 OFFCURVE",
"782 283 CURVE SMOOTH",
"738 186 OFFCURVE",
"662 137 OFFCURVE",
"537 137 CURVE SMOOTH",
"377 137 OFFCURVE",
"307 210 OFFCURVE",
"307 394 CURVE SMOOTH",
"307 437 OFFCURVE",
"309 477 OFFCURVE",
"314 514 CURVE SMOOTH",
"413 1462 LINE",
"228 1462 LINE",
"129 520 LINE SMOOTH",
"123 466 OFFCURVE",
"120 416 OFFCURVE",
"120 369 CURVE SMOOTH",
"120 92 OFFCURVE",
"241 -22 OFFCURVE",
"509 -22 CURVE SMOOTH"
);
}
